# xmcd
#
# Track frame offsets: 
#        150
#        9299
#        19002
#        34381
#        52211
#        64942
#        83159
#        94339
#        108791
#
# Disc length: 1569 seconds
#
# Revision: 0
# Processed by: cddbd v1.5.2PL0 Copyright (c) Steve Scherf et al.
# Submitted via: ExactAudioCopyFreeDBPlugin 1.0
#
DISCID=6e061f09
DTITLE=Jason Shaw - Flatpickers Reel
DYEAR=2012
DGENRE=Folk
TTITLE0=Bill Cheatham
TTITLE1=Flatpickers Reel
TTITLE2=Little Rock Getaway
TTITLE3=Flowers of Edinburgh
TTITLE4=Tennessee Waltz
TTITLE5=Brilliance
TTITLE6=Hog Trough Reel
TTITLE7=Durang's Hornpipe
TTITLE8=Maydelle's Reel
EXTD=
EXTT0=
EXTT1=
EXTT2=
EXTT3=
EXTT4=
EXTT5=
EXTT6=
EXTT7=
EXTT8=
PLAYORDER=
